Coordinates
version=1
nRows=9
nColumns=63
inDegrees=yes

Units are S.I. units (second, meters, Newtons, ...)
If the header above contains a line with 'inDegrees', this indicates whether rotational values are in degrees (yes) or radians (no).

endheader
time	pelvis_tilt	pelvis_list	pelvis_rotation	pelvis_tx	pelvis_ty	pelvis_tz	hip_flexion_r	hip_adduction_r	hip_rotation_r	knee_angle_r	knee_angle_r_beta	ankle_angle_r	subtalar_angle_r	mtp_angle_r	hip_flexion_l	hip_adduction_l	hip_rotation_l	knee_angle_l	knee_angle_l_beta	ankle_angle_l	subtalar_angle_l	mtp_angle_l	L5_S1_Flex_Ext	L5_S1_Lat_Bending	L5_S1_axial_rotation	L4_L5_Flex_Ext	L4_L5_Lat_Bending	L4_L5_axial_rotation	L3_L4_Flex_Ext	L3_L4_Lat_Bending	L3_L4_axial_rotation	L2_L3_Flex_Ext	L2_L3_Lat_Bending	L2_L3_axial_rotation	L1_L2_Flex_Ext	L1_L2_Lat_Bending	L1_L2_axial_rotation	L1_T12_Flex_Ext	L1_T12_Lat_Bending	L1_T12_axial_rotation	Abs_r3	Abs_r2	Abs_r1	Abs_t1	Abs_t2	neck_flexion	neck_bending	neck_rotation	arm_flex_r	arm_add_r	arm_rot_r	elbow_flex_r	pro_sup_r	wrist_flex_r	wrist_dev_r	arm_flex_l	arm_add_l	arm_rot_l	elbow_flex_l	pro_sup_l	wrist_flex_l	wrist_dev_l
3.696429	-3.238001	10.569130	102.996927	0.191177	0.928554	0.503939	-11.128063	2.611921	-18.797460	21.395743	0.373426	40.566773	-5.478939	0.000000	-1.777071	-3.048905	9.242712	28.952824	0.505322	47.360994	12.034091	0.000000	0.161564	-1.840851	2.657966	0.300041	-2.448332	2.824089	0.265434	-4.475846	2.824089	0.184652	-4.475846	2.325721	0.150029	-3.753864	2.159598	0.092318	-2.851479	1.993475	1.154038	-20.824078	14.782812	0.000000	0.000000	-7.592182	7.501725	-19.658784	48.929916	-80.536140	17.479493	31.995643	52.183004	12.204896	9.454933	-32.128520	-146.363091	-87.280559	114.740127	31.450381	-18.986794	15.206073
3.714286	-3.315710	10.623205	102.808882	0.192641	0.928334	0.504511	-10.846838	2.485805	-18.641095	21.901368	0.382251	40.856931	-5.584032	0.000000	-1.701707	-3.101671	8.791927	29.103466	0.507951	47.507240	12.429421	0.000000	0.154441	-1.879373	2.744784	0.286812	-2.499566	2.916333	0.253731	-4.569508	2.916333	0.176511	-4.569508	2.401686	0.143414	-3.832418	2.230137	0.088248	-2.911149	2.058588	1.103157	-21.259844	15.265666	0.000000	0.000000	-7.944563	7.013960	-19.516418	50.883617	-81.458277	22.576293	32.079075	49.238876	10.688119	8.196629	-33.784557	-146.670129	-88.347937	114.427184	29.369324	-19.055966	14.628587
3.732143	-3.360269	10.679096	102.542884	0.194106	0.928129	0.505175	-10.544798	2.366892	-18.433543	22.427127	0.391427	41.149081	-5.690218	0.000000	-1.641361	-3.175307	8.300395	29.236014	0.510265	47.643893	12.770491	0.000000	0.148754	-1.908830	2.833642	0.276251	-2.538743	3.010745	0.244388	-4.641128	3.010745	0.170011	-4.641128	2.479437	0.138133	-3.892485	2.302334	0.084998	-2.956777	2.125231	1.062536	-21.593063	15.759867	0.000000	0.000000	-8.230086	6.477771	-19.225294	53.039414	-82.470269	28.076612	32.434317	46.317575	9.093880	7.344421	-35.420565	-146.872993	-89.424532	114.150635	28.437575	-19.016056	14.315581
3.750000	-3.392099	10.724686	102.159551	0.195594	0.927946	0.505876	-10.211817	2.217401	-18.171839	22.978213	0.401045	41.475958	-5.716014	0.000000	-1.607210	-3.244381	7.733289	29.331790	0.511936	47.730389	13.063546	0.000000	0.146882	-1.931928	2.930381	0.272774	-2.569464	3.113530	0.241312	-4.697289	3.113530	0.167871	-4.697289	2.564084	0.136394	-3.939587	2.380935	0.083928	-2.992556	2.197786	1.049161	-21.854353	16.297902	0.000000	0.000000	-8.427678	5.943568	-18.818480	55.330697	-83.538315	33.775641	33.124081	43.464007	7.165267	7.192460	-36.950670	-146.985224	-90.456509	113.917510	28.893219	-18.799932	14.296499
3.767857	-3.386667	10.766354	101.703379	0.197028	0.927750	0.506660	-9.856875	2.076786	-17.876678	23.542013	0.410886	41.827040	-5.680538	0.000000	-1.583614	-3.328500	7.161003	29.416002	0.513406	47.761633	13.271708	0.000000	0.147865	-1.946012	3.017975	0.274599	-2.588196	3.206598	0.242927	-4.731534	3.206598	0.168994	-4.731534	2.640728	0.137307	-3.968308	2.452104	0.084490	-3.014373	2.263481	1.056182	-22.013677	16.785069	0.000000	0.000000	-8.495395	5.398830	-18.315091	57.931700	-84.434857	39.258828	33.814433	41.416766	5.735469	7.273786	-38.283482	-146.991201	-91.347960	113.677732	29.886318	-18.489513	14.277508
3.785714	-3.363727	10.797121	101.187356	0.198405	0.927551	0.507511	-9.483129	1.931470	-17.546173	24.115618	0.420897	42.170220	-5.609423	0.000000	-1.568796	-3.405817	6.601214	29.489794	0.514694	47.700047	13.391367	0.000000	0.151823	-1.953833	3.089623	0.281950	-2.598598	3.282725	0.249430	-4.750550	3.282725	0.173518	-4.750550	2.703420	0.140983	-3.984257	2.510319	0.086752	-3.026488	2.317217	1.084455	-22.102153	17.183557	0.000000	0.000000	-8.448010	4.847977	-17.730288	60.730104	-85.065539	44.198802	34.541801	40.145286	4.644741	7.685787	-39.326331	-146.894057	-92.007983	113.442967	31.195595	-18.088278	14.236852
3.803571	-3.337361	10.807334	100.645847	0.199711	0.927367	0.508356	-9.111050	1.782535	-17.199047	24.659804	0.430395	42.465125	-5.529442	0.000000	-1.563331	-3.467318	6.070163	29.537593	0.515528	47.544372	13.446409	0.000000	0.158971	-1.959600	3.146185	0.295225	-2.606269	3.342821	0.261173	-4.764573	3.342821	0.181688	-4.764573	2.752912	0.147620	-3.996017	2.556275	0.090836	-3.035421	2.359639	1.135512	-22.167393	17.498136	0.000000	0.000000	-8.305980	4.416483	-17.185178	63.479703	-85.433025	48.308982	35.319867	39.433860	3.837720	8.531939	-40.068764	-146.771831	-92.416808	113.182344	32.546417	-17.669832	14.152856
3.821429	-3.312537	10.803214	100.096534	0.200901	0.927185	0.509187	-8.754118	1.632134	-16.837767	25.171707	0.439329	42.699083	-5.459517	0.000000	-1.569533	-3.501207	5.609231	29.570385	0.516101	47.323805	13.411068	0.000000	0.168158	-1.962627	3.184421	0.312286	-2.610293	3.383447	0.276266	-4.771931	3.383447	0.192188	-4.771931	2.786368	0.156151	-4.002188	2.587342	0.096085	-3.040109	2.388316	1.201135	-22.201626	17.710793	0.000000	0.000000	-8.131533	4.086073	-16.629160	66.305812	-85.521640	51.666646	36.134981	39.901760	3.284640	9.762472	-40.517368	-146.616023	-92.603603	112.910611	34.432890	-17.216066	14.155800
3.839286	-3.265006	10.786916	99.553687	0.201951	0.927020	0.509975	-8.419742	1.513996	-16.458020	25.628877	0.447308	42.844810	-5.429078	0.000000	-1.576011	-3.544882	5.180667	29.594952	0.516529	47.077463	13.349622	0.000000	0.177299	-1.962076	3.219132	0.329261	-2.609561	3.420328	0.291284	-4.770591	3.420328	0.202635	-4.770591	2.816741	0.164640	-4.001065	2.615545	0.101308	-3.039255	2.414349	1.266427	-22.195393	17.903847	0.000000	0.000000	-7.948885	3.909335	-16.273414	68.716200	-85.507252	54.065102	37.025724	41.296875	2.886269	11.180163	-40.827703	-146.492141	-92.705051	112.610778	35.719373	-16.832644	14.067405
